<?xml version="1.0" encoding="utf-8"?>
<!-- Generator: Adobe Illustrator 16.0.0, SVG Export Plug-In . SVG Version: 6.00 Build 0)  -->
<!DOCTYPE svg PUBLIC "-//W3C//DTD SVG 1.1//EN" "http://www.w3.org/Graphics/SVG/1.1/DTD/svg11.dtd">
<svg version="1.1" id="Layer_1" xmlns="http://www.w3.org/2000/svg" xmlns:xlink="http://www.w3.org/1999/xlink" x="0px" y="0px"
	 width="21px" height="22px" viewBox="0 0 21 22" enable-background="new 0 0 21 22" xml:space="preserve">
<g>
	<path fill-rule="evenodd" clip-rule="evenodd" fill="#AAAAAA" d="M19.223,2.064h-2.832v-1.4c0-0.378-0.299-0.679-0.64-0.679
		c-0.378,0-0.681,0.301-0.681,0.679v1.4h-3.93v-1.4c0-0.378-0.298-0.679-0.642-0.679c-0.375,0-0.639,0.301-0.639,0.679v1.4H5.89
		v-1.4c0-0.378-0.265-0.679-0.64-0.679c-0.376,0-0.642,0.301-0.642,0.679v1.4h-2.87C0.795,2.064,0,2.896,0,3.878v16.325
		c0,1.019,0.795,1.811,1.738,1.811h17.484c0.982,0,1.777-0.792,1.777-1.811V3.878C21,2.896,20.205,2.064,19.223,2.064L19.223,2.064z
		 M19.68,20.203c0,0.227-0.192,0.453-0.457,0.453H1.738c-0.227,0-0.419-0.226-0.419-0.453V3.878c0-0.229,0.192-0.455,0.419-0.455
		h2.87v1.4c0,0.378,0.266,0.679,0.642,0.679c0.375,0,0.64-0.301,0.64-0.679v-1.4H9.86v1.4c0,0.378,0.264,0.679,0.639,0.679
		c0.376,0,0.642-0.301,0.642-0.679v-1.4h3.93v1.4c0,0.378,0.303,0.679,0.681,0.679c0.341,0,0.64-0.301,0.64-0.679v-1.4h2.832
		c0.265,0,0.457,0.227,0.457,0.455V20.203L19.68,20.203z"/>
	<rect x="4.608" y="8.261" fill-rule="evenodd" clip-rule="evenodd" fill="#AAAAAA" width="2.606" height="2.04"/>
	<rect x="4.608" y="11.698" fill-rule="evenodd" clip-rule="evenodd" fill="#AAAAAA" width="2.606" height="2.079"/>
	<rect x="4.608" y="15.139" fill-rule="evenodd" clip-rule="evenodd" fill="#AAAAAA" width="2.606" height="2.079"/>
	<rect x="9.182" y="15.139" fill-rule="evenodd" clip-rule="evenodd" fill="#AAAAAA" width="2.638" height="2.079"/>
	<rect x="9.182" y="11.698" fill-rule="evenodd" clip-rule="evenodd" fill="#AAAAAA" width="2.638" height="2.079"/>
	<rect x="9.182" y="8.261" fill-rule="evenodd" clip-rule="evenodd" fill="#AAAAAA" width="2.638" height="2.04"/>
	<rect x="13.784" y="15.139" fill-rule="evenodd" clip-rule="evenodd" fill="#AAAAAA" width="2.606" height="2.079"/>
	<rect x="13.784" y="11.698" fill-rule="evenodd" clip-rule="evenodd" fill="#AAAAAA" width="2.606" height="2.079"/>
	<rect x="13.784" y="8.261" fill-rule="evenodd" clip-rule="evenodd" fill="#AAAAAA" width="2.606" height="2.04"/>
</g>
</svg>
