<?xml version="1.0" encoding="utf-8"?>
<!-- Generator: Adobe Illustrator 16.0.0, SVG Export Plug-In . SVG Version: 6.00 Build 0)  -->
<!DOCTYPE svg PUBLIC "-//W3C//DTD SVG 1.1//EN" "http://www.w3.org/Graphics/SVG/1.1/DTD/svg11.dtd">
<svg version="1.1" id="Layer_1" xmlns="http://www.w3.org/2000/svg" xmlns:xlink="http://www.w3.org/1999/xlink" x="0px" y="0px"
	 width="64px" height="76px" viewBox="0 0 64 76" enable-background="new 0 0 64 76" xml:space="preserve">
<path fill="#81B3D2" d="M61.109,22.501h-0.104H36.324C50.137,15.602,51.24,11.25,50.732,8.816
	c-1.162-3.963-5.693-7.023-10.003-5.407c-5.569,2.089-7.137,10.388-8.644,16.387c-1.924-6.07-3.784-13.814-8.136-17.737
	c-1.261-1.138-3.095-2.264-5.763-2.028c-4.026,0.356-9.802,5.382-7.458,10.981c2.251,5.378,9.687,8.777,14.578,11.489H3.165H2.891
	c-1.584,0-2.879,1.291-2.879,2.869v11.321c0,1.578,1.295,2.869,2.879,2.869h0.274v33.467v2.435V76h57.841v-0.539v-2.436V39.561
	h0.104c1.586,0,2.879-1.291,2.879-2.869V25.37C63.988,23.792,62.695,22.501,61.109,22.501z M42.425,5.944
	c2.103-0.31,4.981,1.299,5.255,3.209c0.393,2.756-3.4,5.255-5.086,6.421c-2.523,1.744-4.928,2.643-7.287,4.055
	C36.191,15.939,37.855,6.618,42.425,5.944z M19.542,15.912c-2.225-1.485-6.544-4.431-6.44-7.771c0.112-3.595,5.743-6.57,8.814-3.886
	c3.857,3.371,5.713,11.105,7.119,16.557C25.787,19.273,22.708,18.024,19.542,15.912z M25.515,73.025H6.148V39.561h19.368
	L25.515,73.025L25.515,73.025z M25.515,36.523H3.058V25.538h22.457V36.523z M35.672,36.523v3.037v33.467h-7.174V39.561v-3.037
	V25.538h7.174V36.523z M58.023,73.025H38.656V39.561h19.367V73.025z M60.943,36.523H38.656V25.538h22.287V36.523z"/>
</svg>
