<?xml version="1.0" encoding="UTF-8"?>
<!DOCTYPE svg PUBLIC "-//W3C//DTD SVG 1.1//EN" "http://www.w3.org/Graphics/SVG/1.1/DTD/svg11.dtd">
<!-- Creator: CorelDRAW X6 -->
<svg xmlns="http://www.w3.org/2000/svg" xml:space="preserve" width="64px" height="76px" version="1.1" style="shape-rendering:geometricPrecision; text-rendering:geometricPrecision; image-rendering:optimizeQuality; fill-rule:evenodd; clip-rule:evenodd"
viewBox="0 0 64 76"
 xmlns:xlink="http://www.w3.org/1999/xlink">
 <defs>
  <style type="text/css">
   <![CDATA[
    .fil0 {fill:#81B3D2}
   ]]>
  </style>
 </defs>
 <g id="Слой_x0020_1">
  <metadata id="CorelCorpID_0Corel-Layer"/>
  <path class="fil0" d="M61 23l0 0 -25 0c14,-7 15,-11 14,-14 -1,-4 -6,-7 -10,-5 -6,2 -7,10 -9,16 -2,-6 -4,-14 -8,-18 -1,-1 -3,-2 -6,-2 -4,0 -10,5 -7,11 2,5 10,9 15,11l-22 0 0 0c-2,0 -3,1 -3,3l0 11c0,2 1,3 3,3l0 0 0 33 0 2 0 1 58 0 0 -1 0 -2 0 -33 0 0c2,0 3,-1 3,-3l0 -11c0,-2 -1,-3 -3,-3zm-19 -17c2,0 5,1 5,3 0,3 -3,5 -5,6 -3,2 -5,3 -7,4 1,-4 3,-13 7,-14zm-23 10c-2,-1 -7,-4 -6,-8 0,-4 6,-7 9,-4 4,3 6,11 7,17 -3,-2 -6,-3 -9,-5zm6 57l-19 0 0 -33 19 0 0 33 0 0zm0 -37l-22 0 0 -11 22 0 0 11zm10 0l0 3 0 33 -7 0 0 -33 0 -3 0 -11 7 0 0 11zm22 37l-19 0 0 -33 19 0 0 33zm3 -37l-22 0 0 -11 22 0 0 11z"/>
 </g>
</svg>
