<?xml version="1.0" encoding="utf-8"?>
<!-- Generator: Adobe Illustrator 16.0.0, SVG Export Plug-In . SVG Version: 6.00 Build 0)  -->
<!DOCTYPE svg PUBLIC "-//W3C//DTD SVG 1.1//EN" "http://www.w3.org/Graphics/SVG/1.1/DTD/svg11.dtd">
<svg version="1.1" id="Layer_1" xmlns="http://www.w3.org/2000/svg" xmlns:xlink="http://www.w3.org/1999/xlink" x="0px" y="0px"
	 width="46px" height="48px" viewBox="0 0 46 48" enable-background="new 0 0 46 48" xml:space="preserve">
<rect fill="#81B3D2" width="46" height="48"/>
<g id="W6EeEF_1_">
	<g>
		<path fill="#FFFFFF" d="M25.45,16.644c1.685-0.496,2.983,0.27,3.577,1.179c0.673-0.231,1.33-0.481,2.011-0.708
			c-0.004,0.861-0.522,1.513-0.856,1.768c0.686,0.17,1.303-0.491,1.303-0.491c-0.168,1-1.006,1.788-1.563,2.024
			c-0.23,6.75-3.175,11.217-10.077,11.082c-0.522,0,0.075,0-0.446,0c-0.41,0-4.164-0.46-4.898-1.887
			c2.271,0.195,3.893-0.422,4.693-1.178c-0.96-0.301-2.679-0.478-2.979-2.949c0.349,0.104,0.564,0.228,1.19,0.119
			c-1.2-0.856-2.531-1.573-2.457-3.773c0.285,0.328,1.067,0.536,1.34,0.472c-0.703-0.241-1.97-3.36-0.894-4.952
			c1.818,1.854,3.735,3.606,7.152,3.773C22.754,18.83,23.684,17.293,25.45,16.644z"/>
	</g>
</g>
</svg>
